<?xml version="1.0" encoding="utf-8"?>
<!-- Generator: Adobe Illustrator 14.0.0, SVG Export Plug-In . SVG Version: 6.00 Build 43363)  -->
<!DOCTYPE svg PUBLIC "-//W3C//DTD SVG 1.1//EN" "http://www.w3.org/Graphics/SVG/1.1/DTD/svg11.dtd">
<svg xmlns="http://www.w3.org/2000/svg" xmlns:xlink="http://www.w3.org/1999/xlink" version="1.1" id="Layer_1" x="0px" y="0px" viewBox="0 0 612 792" enable-background="new 0 0 612 792" xml:space="preserve">
<g>
	<path fill-rule="evenodd" clip-rule="evenodd" d="M229.024,384.276c-1.343,0.104-2.066,1.033-2.169,2.376l-4.958,24.375   l9.502-0.103l2.479-11.775l8.676,11.878h11.878l-11.775-15.803l11.671-10.949h-10.019l-9.089,8.263l2.066-8.263H229.024   L229.024,384.276z"/>
	<path fill-rule="evenodd" clip-rule="evenodd" d="M308.246,404.211c-0.62-2.066-17.249-8.986-30.16-11.258   c-12.808-2.272-21.174,1.549-22.104,7.849c-1.239,8.677,8.676,15.287,19.521,14.874c8.263-0.207,17.042-6.507,19.315-15.803   l3.925,1.342l-2.272,9.813h10.225L308.246,404.211L308.246,404.211z"/>
	<path fill-rule="evenodd" clip-rule="evenodd" d="M358.857,387.685l-3.926,23.343h9.71l4.544-26.648h-7.54   C360.097,384.379,359.271,385.103,358.857,387.685L358.857,387.685z"/>
	<path fill-rule="evenodd" clip-rule="evenodd" d="M374.351,386.548l-4.132,24.479h22.104l0.93-6.094h-12.91l3.821-20.554h-7.127   C375.177,384.379,374.453,385.206,374.351,386.548L374.351,386.548z"/>
	<path fill-rule="evenodd" clip-rule="evenodd" d="M347.702,384.379h-9.09c-1.343,0-2.375,0.723-3.099,2.272l-10.639,20.347   l-7.953-6.816c3.306-1.033,6.198-2.582,7.644-5.474c2.893-5.165,2.272-11.361-5.681-11.361h-14.77   c-1.136,0.103-1.549,1.239-1.962,2.582l-2.169,10.535c-14.254-8.883-29.541-14.667-37.7-11.361   c3.718-3.202,8.676-5.578,14.46-4.028c6.507,1.962,12.291,6.506,17.972,10.535c-1.549-5.887-7.333-14.15-17.766-15.39   c-12.911-1.55-21.277,7.127-23.549,15.7c8.16-5.268,19.315-7.333,45.033,5.681c6.92,3.512,13.324,7.746,19.005,13.427h13.737   l9.193-17.559l3.614,17.559h9.813L347.702,384.379L347.702,384.379z M309.485,396.98l2.065-9.192h4.132   C320.124,391.093,314.34,397.704,309.485,396.98L309.485,396.98z"/>
</g>
</svg>